<svg xmlns="http://www.w3.org/2000/svg" width="1920" height="291" viewBox="0 0 1920 291">
  <defs>
    <style>
      .cls-1 {
        fill: #9fabb6;
      }

      .cls-1, .cls-2, .cls-3 {
        fill-rule: evenodd;
      }

      .cls-1, .cls-2 {
        opacity: 0.6;
      }

      .cls-2 {
        fill: #0c0b30;
      }

      .cls-3 {
        fill: #040224;
      }
    </style>
  </defs>
  <path id="Shape_1_copy_2" data-name="Shape 1 copy 2" class="cls-1" d="M-329,232S-24.371-32.168,388,14s458.815,188.022,850,200C1728.98,231.967,1998,0,1998,0l-18,337s-497.67,65.736-599,66-948.524-96.42-970-90S96,339,96,339l-271-65-140-38"/>
  <path id="Shape_1_copy" data-name="Shape 1 copy" class="cls-2" d="M-203,232S101.629-32.168,514,14s458.815,188.022,850,200C1854.98,231.967,2124,0,2124,0l-18,337s-497.67,65.736-599,66-948.524-96.42-970-90-315,26-315,26L-49,274l-140-38"/>
  <path class="cls-3" d="M-250,247S54.629-17.168,467,29s458.815,188.022,850,200c490.98,17.967,760-214,760-214l-18,337s-497.67,65.736-599,66-948.524-96.42-970-90-315,26-315,26L-96,289l-140-38"/>
</svg>
